<?xml version="1.0" encoding="utf-8"?>
<!-- Generator: Adobe Illustrator 17.0.0, SVG Export Plug-In . SVG Version: 6.00 Build 0)  -->
<!DOCTYPE svg PUBLIC "-//W3C//DTD SVG 1.1//EN" "http://www.w3.org/Graphics/SVG/1.1/DTD/svg11.dtd" [
	<!ENTITY ns_extend "http://ns.adobe.com/Extensibility/1.0/">
	<!ENTITY ns_ai "http://ns.adobe.com/AdobeIllustrator/10.0/">
	<!ENTITY ns_graphs "http://ns.adobe.com/Graphs/1.0/">
	<!ENTITY ns_vars "http://ns.adobe.com/Variables/1.0/">
	<!ENTITY ns_imrep "http://ns.adobe.com/ImageReplacement/1.0/">
	<!ENTITY ns_sfw "http://ns.adobe.com/SaveForWeb/1.0/">
	<!ENTITY ns_custom "http://ns.adobe.com/GenericCustomNamespace/1.0/">
	<!ENTITY ns_adobe_xpath "http://ns.adobe.com/XPath/1.0/">
]>
<svg version="1.1" id="Capa_1" xmlns:x="&ns_extend;" xmlns:i="&ns_ai;" xmlns:graph="&ns_graphs;"
	 xmlns="http://www.w3.org/2000/svg" xmlns:xlink="http://www.w3.org/1999/xlink" x="0px" y="0px" width="1023.84px"
	 height="1024px" viewBox="172.08 -44 1023.84 1024" enable-background="new 172.08 -44 1023.84 1024" xml:space="preserve">
<metadata>
	<sfw  xmlns="&ns_sfw;">
		<slices></slices>
		<sliceSourceBounds  height="1024" width="1024" y="-43.5" x="171.5" bottomLeftOrigin="true"></sliceSourceBounds>
	</sfw>
</metadata>
<g>
	<g>
		<g>
			<g>
				<path fill="#010002" d="M684-44c-282.761,0-512,229.239-512,512c0,282.829,229.239,512,512,512c282.829,0,512-229.171,512-512
					C1196,185.239,966.829-44,684-44z M684,911.734c-244.668,0-443.734-199.066-443.734-443.734S439.332,24.266,684,24.266
					S1127.734,223.332,1127.734,468S928.668,911.734,684,911.734z"/>
				<path fill="#010002" d="M872.963,230.774L685.365,418.438L517.02,230.774c-13.312-13.312-34.954-13.312-48.264,0
					c-13.312,13.312-13.312,34.954,0,48.264l168.345,187.665L446.843,656.961c-13.312,13.312-13.312,35.021,0,48.264
					c13.312,13.312,34.954,13.312,48.264,0l187.665-187.597l168.345,187.597c13.243,13.312,34.954,13.312,48.196,0
					c13.312-13.245,13.312-34.954,0-48.264L730.901,469.363l190.258-190.328c13.312-13.312,13.312-34.954,0-48.264
					S886.275,217.461,872.963,230.774z"/>
			</g>
		</g>
	</g>
</g>
</svg>
