<?xml version="1.0" encoding="utf-8"?>
<!-- Generator: Adobe Illustrator 17.0.0, SVG Export Plug-In . SVG Version: 6.00 Build 0)  -->
<!DOCTYPE svg PUBLIC "-//W3C//DTD SVG 1.1//EN" "http://www.w3.org/Graphics/SVG/1.1/DTD/svg11.dtd" [
	<!ENTITY ns_extend "http://ns.adobe.com/Extensibility/1.0/">
	<!ENTITY ns_ai "http://ns.adobe.com/AdobeIllustrator/10.0/">
	<!ENTITY ns_graphs "http://ns.adobe.com/Graphs/1.0/">
	<!ENTITY ns_vars "http://ns.adobe.com/Variables/1.0/">
	<!ENTITY ns_imrep "http://ns.adobe.com/ImageReplacement/1.0/">
	<!ENTITY ns_sfw "http://ns.adobe.com/SaveForWeb/1.0/">
	<!ENTITY ns_custom "http://ns.adobe.com/GenericCustomNamespace/1.0/">
	<!ENTITY ns_adobe_xpath "http://ns.adobe.com/XPath/1.0/">
]>
<svg version="1.1" id="Capa_1" xmlns:x="&ns_extend;" xmlns:i="&ns_ai;" xmlns:graph="&ns_graphs;"
	 xmlns="http://www.w3.org/2000/svg" xmlns:xlink="http://www.w3.org/1999/xlink" x="0px" y="0px" width="1023.998px"
	 height="1024px" viewBox="172.001 -44 1023.998 1024" enable-background="new 172.001 -44 1023.998 1024" xml:space="preserve">
<metadata>
	<sfw  xmlns="&ns_sfw;">
		<slices></slices>
		<sliceSourceBounds  height="1024" width="1024" y="-43.5" x="171.5" bottomLeftOrigin="true"></sliceSourceBounds>
	</sfw>
</metadata>
<g>
	<g>
		<g>
			<path fill="#010002" d="M684-44c-282.76,0-512,229.24-512,512c0,282.829,229.24,512,512,512c282.829,0,512-229.171,512-512
				C1195.998,185.24,966.827-44,684-44z M921.226,279.038L730.967,469.366l168.413,187.596c13.313,13.313,13.313,35.02,0,48.264
				c-13.244,13.313-34.953,13.313-48.195,0L682.771,517.63L495.107,705.226c-13.313,13.313-34.953,13.313-48.264,0
				c-13.313-13.244-13.313-34.953,0-48.264l190.259-190.259L468.756,279.038c-13.313-13.313-13.313-34.953,0-48.264
				c13.313-13.311,34.953-13.313,48.264,0l168.413,187.665l187.596-187.665c13.313-13.313,34.953-13.313,48.264,0
				C934.605,244.085,934.537,265.725,921.226,279.038z"/>
		</g>
	</g>
</g>
</svg>
