<?xml version="1.0" encoding="utf-8"?>
<!-- Generator: Adobe Illustrator 17.0.0, SVG Export Plug-In . SVG Version: 6.00 Build 0)  -->
<!DOCTYPE svg PUBLIC "-//W3C//DTD SVG 1.1//EN" "http://www.w3.org/Graphics/SVG/1.1/DTD/svg11.dtd" [
	<!ENTITY ns_extend "http://ns.adobe.com/Extensibility/1.0/">
	<!ENTITY ns_ai "http://ns.adobe.com/AdobeIllustrator/10.0/">
	<!ENTITY ns_graphs "http://ns.adobe.com/Graphs/1.0/">
	<!ENTITY ns_vars "http://ns.adobe.com/Variables/1.0/">
	<!ENTITY ns_imrep "http://ns.adobe.com/ImageReplacement/1.0/">
	<!ENTITY ns_sfw "http://ns.adobe.com/SaveForWeb/1.0/">
	<!ENTITY ns_custom "http://ns.adobe.com/GenericCustomNamespace/1.0/">
	<!ENTITY ns_adobe_xpath "http://ns.adobe.com/XPath/1.0/">
]>
<svg version="1.1" id="Capa_1" xmlns:x="&ns_extend;" xmlns:i="&ns_ai;" xmlns:graph="&ns_graphs;"
	 xmlns="http://www.w3.org/2000/svg" xmlns:xlink="http://www.w3.org/1999/xlink" x="0px" y="0px" width="512px" height="512px"
	 viewBox="-224 -224 512 512" enable-background="new -224 -224 512 512" xml:space="preserve">
<metadata>
	<sfw  xmlns="&ns_sfw;">
		<slices></slices>
		<sliceSourceBounds  width="512" height="439.56" y="-187.28" x="-224.5" bottomLeftOrigin="true"></sliceSourceBounds>
	</sfw>
</metadata>
<g>
	<path fill="#FFFFFF" d="M92.742-186.87c-13.182-3.662-26.837,4.056-30.5,17.24l-108.223,390c-3.662,13.183,4.056,26.839,17.24,30.5
		c2.218,0.616,4.449,0.91,6.644,0.91c10.851,0,20.81-7.185,23.856-18.15l108.223-390C113.643-169.551,105.925-183.208,92.742-186.87
		z"/>
	<path fill="#FFFFFF" d="M-100.805-86.145c-10.521-8.75-26.142-7.313-34.889,3.207l-82.581,99.308
		c-7.647,9.196-7.634,22.541,0.033,31.721l82.581,98.885c4.9,5.868,11.94,8.896,19.028,8.896c5.601,0,11.233-1.889,15.867-5.759
		c10.503-8.77,11.906-24.394,3.136-34.895l-69.346-83.038l69.379-83.435C-88.849-61.777-90.285-77.398-100.805-86.145z"/>
	<path fill="#FFFFFF" d="M282.241,15.907L199.66-82.977c-8.77-10.503-24.394-11.905-34.895-3.135
		c-10.503,8.77-11.905,24.394-3.135,34.895l69.346,83.038l-69.379,83.435c-8.749,10.521-7.312,26.142,3.207,34.889
		c4.628,3.85,10.243,5.726,15.827,5.726c7.107,0,14.163-3.042,19.061-8.935l82.581-99.308
		C289.921,38.43,289.908,25.085,282.241,15.907z"/>
</g>
</svg>
