<?xml version="1.0" encoding="utf-8"?>
<!-- Generator: Adobe Illustrator 17.0.0, SVG Export Plug-In . SVG Version: 6.00 Build 0)  -->
<!DOCTYPE svg PUBLIC "-//W3C//DTD SVG 1.1//EN" "http://www.w3.org/Graphics/SVG/1.1/DTD/svg11.dtd" [
	<!ENTITY ns_extend "http://ns.adobe.com/Extensibility/1.0/">
	<!ENTITY ns_ai "http://ns.adobe.com/AdobeIllustrator/10.0/">
	<!ENTITY ns_graphs "http://ns.adobe.com/Graphs/1.0/">
	<!ENTITY ns_vars "http://ns.adobe.com/Variables/1.0/">
	<!ENTITY ns_imrep "http://ns.adobe.com/ImageReplacement/1.0/">
	<!ENTITY ns_sfw "http://ns.adobe.com/SaveForWeb/1.0/">
	<!ENTITY ns_custom "http://ns.adobe.com/GenericCustomNamespace/1.0/">
	<!ENTITY ns_adobe_xpath "http://ns.adobe.com/XPath/1.0/">
]>
<svg version="1.1" id="Capa_1" xmlns:x="&ns_extend;" xmlns:i="&ns_ai;" xmlns:graph="&ns_graphs;"
	 xmlns="http://www.w3.org/2000/svg" xmlns:xlink="http://www.w3.org/1999/xlink" x="0px" y="0px" width="512px" height="512px"
	 viewBox="-224 -224 512 512" enable-background="new -224 -224 512 512" xml:space="preserve">
<metadata>
	<sfw  xmlns="&ns_sfw;">
		<slices></slices>
		<sliceSourceBounds  width="512" height="511.977" y="-223.488" x="-224.5" bottomLeftOrigin="true"></sliceSourceBounds>
	</sfw>
</metadata>
<g>
	<path fill="#FFFFFF" d="M269.463-205.475c-12.284-12.286-29.548-18.513-51.309-18.513c-59.162,0-144.65,46.171-223.102,120.496
		c-1.123,1.065-1.968,2.388-2.461,3.855l-22.239,66.281l-29.721-4.757c-3.37-0.539-6.764,0.777-8.889,3.447
		c-49.175,61.779-63.069,138.396-66.762,184.663L43.578-28.602c6.545-6.552,15.252-10.159,24.513-10.159s17.966,3.607,24.502,10.147
		c6.549,6.545,10.154,15.251,10.154,24.51c0,9.258-3.606,17.962-10.151,24.506L-81.689,194.689
		c15.411-2.612,34.009-6.467,54.506-12.152c51.426-14.263,124.689-43.228,181.687-100.226c10.173-10.17,20.123-20.769,29.569-31.497
		c2.32-2.636,2.988-6.337,1.738-9.617l-10.687-27.985l63.003-35.764c1.371-0.778,2.527-1.886,3.359-3.225
		C291.373-105.926,301.835-173.104,269.463-205.475z"/>
	<path fill="#FFFFFF" d="M74.774-10.786c-1.845-1.846-4.264-2.769-6.682-2.769c-2.418,0-4.838,0.923-6.682,2.769l-197.604,197.604
		l-85.035,85.035c-3.693,3.691-3.693,9.676,0,13.365c1.845,1.846,4.264,2.769,6.682,2.769s4.838-0.923,6.682-2.769l85.42-85.42
		L74.774,2.581C78.466-1.11,78.466-7.095,74.774-10.786z"/>
</g>
</svg>
