<?xml version="1.0" encoding="utf-8"?>
<!-- Generator: Adobe Illustrator 17.0.0, SVG Export Plug-In . SVG Version: 6.00 Build 0)  -->
<!DOCTYPE svg PUBLIC "-//W3C//DTD SVG 1.1//EN" "http://www.w3.org/Graphics/SVG/1.1/DTD/svg11.dtd" [
	<!ENTITY ns_extend "http://ns.adobe.com/Extensibility/1.0/">
	<!ENTITY ns_ai "http://ns.adobe.com/AdobeIllustrator/10.0/">
	<!ENTITY ns_graphs "http://ns.adobe.com/Graphs/1.0/">
	<!ENTITY ns_vars "http://ns.adobe.com/Variables/1.0/">
	<!ENTITY ns_imrep "http://ns.adobe.com/ImageReplacement/1.0/">
	<!ENTITY ns_sfw "http://ns.adobe.com/SaveForWeb/1.0/">
	<!ENTITY ns_custom "http://ns.adobe.com/GenericCustomNamespace/1.0/">
	<!ENTITY ns_adobe_xpath "http://ns.adobe.com/XPath/1.0/">
]>
<svg version="1.1" id="Capa_1" xmlns:x="&ns_extend;" xmlns:i="&ns_ai;" xmlns:graph="&ns_graphs;"
	 xmlns="http://www.w3.org/2000/svg" xmlns:xlink="http://www.w3.org/1999/xlink" x="0px" y="0px" width="512px" height="512px"
	 viewBox="-224 -224 512 512" enable-background="new -224 -224 512 512" xml:space="preserve">
<metadata>
	<sfw  xmlns="&ns_sfw;">
		<slices></slices>
		<sliceSourceBounds  width="512" height="462.769" y="-198.884" x="-224.5" bottomLeftOrigin="true"></sliceSourceBounds>
	</sfw>
</metadata>
<g>
	<g>
		<path fill="#FFFFFF" d="M233.846-199.385h-403.692c-29.861,0-54.154,24.294-54.154,54.154V76.307v34.462
			c0,29.86,24.293,54.154,54.154,54.154h130.759l-15.754,78.769h-51.005c-5.438,0-9.846,4.408-9.846,9.846
			c0,5.438,4.408,9.846,9.846,9.846h275.692c5.438,0,9.846-4.408,9.846-9.846c0-5.438-4.408-9.846-9.846-9.846h-51.005
			l-15.754-78.769h130.759c29.86,0,54.154-24.293,54.154-54.154V76.307v-221.538C288-175.091,263.707-199.385,233.846-199.385z
			 M-34.759,243.692l15.754-78.769h102.01l15.754,78.769C98.759,243.692-34.759,243.692-34.759,243.692z M268.308,110.769
			c0,19.002-15.459,34.462-34.462,34.462h-403.692c-19.002,0-34.462-15.459-34.462-34.462V86.154h472.615v24.615H268.308z
			 M268.308,66.462h-472.616V46.77h59.077c5.438,0,9.846-4.408,9.846-9.846s-4.408-9.846-9.846-9.846h-59.077v-172.309
			c0-19.002,15.459-34.462,34.462-34.462h403.692c19.002,0,34.462,15.459,34.462,34.462
			C268.308-145.231,268.308,66.462,268.308,66.462z"/>
	</g>
</g>
<g>
	<g>
		<path fill="#FFFFFF" d="M32,106.692c-4.963,0-9,4.037-9,9s4.037,9,9,9s9-4.037,9-9S36.963,106.692,32,106.692z"/>
	</g>
</g>
</svg>
